<svg xmlns="http://www.w3.org/2000/svg" viewBox="0 0 32 32" fill="none">
  <rect x="0.5" y="0.5" width="31" height="31" rx="7.5" fill="#09090b" stroke="#f97316" stroke-opacity="0.15" stroke-width="1"/>
  <g transform="translate(4, 4)">
    <path d="M 3 24 C 1 24, 0 20, 0 15 C 0 6, 7 1.5, 16 1.5 C 24 1.5, 29 6, 30 12 C 31 15, 31 18, 30 20 C 28.5 23, 24 22.5, 20.25 22.5 C 16.5 22.5, 4.5 24, 3 24 Z" fill="#0f0f11" stroke="#f97316" stroke-width="2" stroke-linecap="round" stroke-linejoin="round"/>
    <path d="M 14 8 C 19 8, 24 9.5, 26 12 C 27.5 13.5, 27 15.5, 26 17 C 24 18.5, 19.5 18.5, 15 18 C 13.5 17.5, 12.75 15, 12.75 13.5 C 12.75 11, 13.5 8, 14 8 Z" fill="#f97316" fill-opacity="0.95" stroke="#f97316" stroke-width="1" stroke-linecap="round" stroke-linejoin="round"/>
    <circle cx="11.25" cy="13.5" r="1.5" fill="#ffffff"/>
    <path d="M 25 19.5 L 26.5 19.5" stroke="#ffffff" stroke-width="1.5" stroke-linecap="round"/>
    <path d="M 17.25 3.75 C 18.75 3.75, 20.25 4.5, 21 5.25" stroke="#ffffff" stroke-width="1.2" stroke-linecap="round"/>
  </g>
</svg>
